<svg width="15" height="16" viewBox="0 0 15 16" fill="none" xmlns="http://www.w3.org/2000/svg">
<g id="download (1)">
<path id="Vector" d="M13.125 12.375H1.875C1.70924 12.375 1.55027 12.4408 1.43306 12.5581C1.31585 12.6753 1.25 12.8342 1.25 13C1.25 13.1658 1.31585 13.3247 1.43306 13.4419C1.55027 13.5592 1.70924 13.625 1.875 13.625H13.125C13.2908 13.625 13.4497 13.5592 13.5669 13.4419C13.6842 13.3247 13.75 13.1658 13.75 13C13.75 12.8342 13.6842 12.6753 13.5669 12.5581C13.4497 12.4408 13.2908 12.375 13.125 12.375Z" fill="#08101B"/>
<path id="Vector_2" d="M7.5006 1.75C7.33484 1.75 7.17587 1.81585 7.05866 1.93306C6.94145 2.05027 6.8756 2.20924 6.8756 2.375V8.99375L4.81935 6.93125C4.70166 6.81356 4.54204 6.74744 4.3756 6.74744C4.20917 6.74744 4.04954 6.81356 3.93185 6.93125C3.81416 7.04894 3.74805 7.20856 3.74805 7.375C3.74805 7.54144 3.81416 7.70106 3.93185 7.81875L7.05685 10.9438C7.11496 11.0023 7.18408 11.0488 7.26024 11.0806C7.33641 11.1123 7.4181 11.1286 7.5006 11.1286C7.58311 11.1286 7.6648 11.1123 7.74096 11.0806C7.81713 11.0488 7.88625 11.0023 7.94435 10.9438L11.0694 7.81875C11.1276 7.76048 11.1739 7.6913 11.2054 7.61516C11.2369 7.53902 11.2532 7.45741 11.2532 7.375C11.2532 7.29259 11.2369 7.21098 11.2054 7.13484C11.1739 7.05871 11.1276 6.98952 11.0694 6.93125C11.0111 6.87298 10.9419 6.82675 10.8658 6.79521C10.7896 6.76368 10.708 6.74744 10.6256 6.74744C10.5432 6.74744 10.4616 6.76368 10.3854 6.79521C10.3093 6.82675 10.2401 6.87298 10.1819 6.93125L8.1256 8.99375V2.375C8.1256 2.20924 8.05976 2.05027 7.94255 1.93306C7.82534 1.81585 7.66636 1.75 7.5006 1.75Z" fill="#08101B"/>
</g>
</svg>
